<svg width="17" height="17" viewBox="0 0 17 17" fill="none" xmlns="http://www.w3.org/2000/svg">
<path d="M3.5 8.65137C2.39722 8.65137 1.5 7.75439 1.5 6.65137C1.5 5.54834 2.39722 4.65137 3.5 4.65137C4.60278 4.65137 5.5 5.54834 5.5 6.65137C5.5 7.75439 4.60278 8.65137 3.5 8.65137ZM4.38501 8.98633C3.81494 9.20654 3.18506 9.20654 2.61499 8.98633C2.46997 8.93115 2.30493 8.95117 2.17505 9.03125C1.43994 9.49658 1 10.2861 1 11.1514V13.1514C1 13.4263 1.2251 13.6514 1.5 13.6514H4V11.1514C4 10.3765 4.20508 9.62158 4.57495 8.96143C4.51001 8.95117 4.44507 8.96143 4.38501 8.98633ZM13.5 8.65137C14.6028 8.65137 15.5 7.75439 15.5 6.65137C15.5 5.54834 14.6028 4.65137 13.5 4.65137C12.3972 4.65137 11.5 5.54834 11.5 6.65137C11.5 7.75439 12.3972 8.65137 13.5 8.65137ZM14.825 9.03125C14.6951 8.95117 14.53 8.93115 14.385 8.98633C13.8149 9.20654 13.1851 9.20654 12.615 8.98633C12.5549 8.96143 12.49 8.95117 12.425 8.96143C12.7949 9.62158 13 10.3765 13 11.1514V13.6514H15.5C15.7749 13.6514 16 13.4263 16 13.1514V11.1514C16 10.2861 15.5601 9.49658 14.825 9.03125ZM8.5 7.65137C7.12158 7.65137 6 6.52979 6 5.15137C6 3.77295 7.12158 2.65137 8.5 2.65137C9.87842 2.65137 11 3.77295 11 5.15137C11 6.52979 9.87842 7.65137 8.5 7.65137ZM12 11.1514C12 10.0361 11.4651 8.98633 10.5649 8.33154C10.415 8.22119 10.2151 8.20654 10.05 8.28613C9.71509 8.45654 9.36011 8.56152 9 8.61133V11.1514C9 11.4263 8.7749 11.6514 8.5 11.6514C8.2251 11.6514 8 11.4263 8 11.1514V8.61133C7.63989 8.56152 7.28491 8.45654 6.94995 8.28613C6.78491 8.20654 6.58496 8.22119 6.43506 8.33154C5.53491 8.98633 5 10.0361 5 11.1514V13.6514H12V11.1514Z" fill="#606C85"/>
</svg>
