<svg width="17" height="17" viewBox="0 0 17 17" fill="none" xmlns="http://www.w3.org/2000/svg">
<g clip-path="url(#clip0_10285_601)">
<path d="M8.38501 8.20728C9.44385 8.20728 10.3607 7.82751 11.1099 7.07825C11.859 6.3291 12.2388 5.41248 12.2388 4.35352C12.2388 3.29492 11.859 2.37817 11.1097 1.62878C10.3605 0.879761 9.44373 0.5 8.38501 0.5C7.32605 0.5 6.40942 0.879761 5.66028 1.62891C4.91113 2.37805 4.53125 3.2948 4.53125 4.35352C4.53125 5.41248 4.91113 6.32922 5.6604 7.07837C6.40967 7.82739 7.32642 8.20728 8.38501 8.20728Z" fill="#606C85"/>
<path d="M15.129 12.8031C15.1074 12.4913 15.0637 12.1512 14.9994 11.7921C14.9344 11.4303 14.8508 11.0883 14.7507 10.7756C14.6473 10.4525 14.5067 10.1334 14.3329 9.82764C14.1525 9.51025 13.9406 9.23389 13.7028 9.00647C13.4541 8.76855 13.1497 8.57727 12.7976 8.43774C12.4468 8.29895 12.058 8.22864 11.6421 8.22864C11.4788 8.22864 11.3208 8.29565 11.0157 8.49426C10.828 8.6167 10.6084 8.7583 10.3633 8.91492C10.1537 9.04846 9.86975 9.17358 9.51904 9.28687C9.17688 9.39758 8.82947 9.45374 8.48657 9.45374C8.14368 9.45374 7.79639 9.39758 7.45386 9.28687C7.10352 9.17371 6.81958 9.04858 6.61023 8.91504C6.36743 8.75989 6.14771 8.61829 5.95715 8.49414C5.65247 8.29553 5.49438 8.22852 5.33105 8.22852C4.91504 8.22852 4.52637 8.29895 4.17566 8.43787C3.82385 8.57715 3.51929 8.76843 3.27039 9.00659C3.03271 9.23413 2.82068 9.51038 2.6405 9.82764C2.4668 10.1334 2.32617 10.4524 2.22266 10.7758C2.12268 11.0884 2.03906 11.4303 1.97412 11.7921C1.90979 12.1508 1.86609 12.491 1.84448 12.8035C1.82324 13.1096 1.8125 13.4274 1.8125 13.7483C1.8125 14.5835 2.078 15.2596 2.60156 15.7583C3.11865 16.2504 3.80286 16.5 4.63489 16.5H12.339C13.171 16.5 13.855 16.2505 14.3722 15.7583C14.8959 15.26 15.1614 14.5837 15.1614 13.7482C15.1613 13.4258 15.1504 13.1078 15.129 12.8031Z" fill="#606C85"/>
</g>
<defs>
<clipPath id="clip0_10285_601">
<rect width="16" height="16.0001" fill="white" transform="translate(0.5 0.5)"/>
</clipPath>
</defs>
</svg>
